<?xml version="1.0" encoding="UTF-8" standalone="no"?>
<!-- Generator: Adobe Illustrator 26.5.0, SVG Export Plug-In . SVG Version: 6.00 Build 0)  -->

<svg
   version="1.1"
   id="Calque_1"
   x="0px"
   y="0px"
   viewBox="0 0 380 90.800003"
   xml:space="preserve"
   sodipodi:docname="logo.svg"
   width="380"
   height="90.800003"
   inkscape:version="1.2.1 (9c6d41e410, 2022-07-14)"
   xmlns:inkscape="http://www.inkscape.org/namespaces/inkscape"
   xmlns:sodipodi="http://sodipodi.sourceforge.net/DTD/sodipodi-0.dtd"
   xmlns="http://www.w3.org/2000/svg"
   xmlns:svg="http://www.w3.org/2000/svg"><defs
   id="defs104" /><sodipodi:namedview
   id="namedview102"
   pagecolor="#ffffff"
   bordercolor="#000000"
   borderopacity="0.25"
   inkscape:showpageshadow="2"
   inkscape:pageopacity="0.0"
   inkscape:pagecheckerboard="0"
   inkscape:deskcolor="#d1d1d1"
   showgrid="false"
   inkscape:zoom="1.7116667"
   inkscape:cx="184.61538"
   inkscape:cy="72.151897"
   inkscape:window-width="1562"
   inkscape:window-height="1229"
   inkscape:window-x="2070"
   inkscape:window-y="523"
   inkscape:window-maximized="0"
   inkscape:current-layer="Calque_1" />
<style
   type="text/css"
   id="style77">
	.st0{fill:#8E3557;}
</style>
<g
   id="g99"
   transform="translate(-210,-229.6)">
	<g
   id="g95">
		<path
   d="m 228.9,267.8 v 44.3 h 18.9 l 12.6,-17.1 -1.9,21.9 H 210 l 8.1,-6.2 v -43.1 l -8.1,-6.3 h 27.3 z"
   id="path79" />
		<path
   d="m 271.6,273.2 c -0.8,-0.5 -3.8,-1.6 -3.8,-5.8 0,-3.3 2.6,-6.2 6.6,-6.2 3.4,0 6.9,3.2 6.9,8.5 0,9.1 -7.9,15.1 -9.8,16.3 -1,0.5 -1.9,0.3 -2,0.1 -0.2,-0.3 -0.2,-0.9 0.2,-1.4 1.3,-1.8 4,-4.9 4,-8.7 0,-2 -1.5,-2.7 -2.1,-2.8 z"
   id="path81" />
		<path
   d="m 321.4,265.7 h -17 v 20.4 h 10 l 7.3,-10.8 v 26.4 l -7.3,-10.8 h -10 v 21.2 h 20.2 l 12.4,-17.6 -3.1,22.4 h -48.4 l 8.1,-6.2 v -43.1 l -8.1,-6.3 h 47.3 l 1.5,20.8 z"
   id="path83" />
		<path
   d="m 350.9,310.7 v -43.1 l -8.1,-6.3 H 357 c 0,0 8.6,-0.1 15.6,-0.1 11.5,0 18.3,7.3 18.3,15.3 0,9.3 -7.3,17.7 -20,17.7 -5.3,0 -8,-0.2 -9.2,-0.3 v 16.5 l 8.4,6.5 h -27.3 z m 10.9,-45.5 v 25.1 c 8.7,0 17.7,-0.2 17.7,-12.6 0,-5 -1.6,-9.2 -4.6,-11 -2.9,-1.5 -6.5,-1.5 -11.3,-1.5 z"
   id="path85" />
		<path
   d="m 421.1,257.3 -12.8,-6.2 -13.1,6.2 -1.2,-1.6 14.2,-13.1 14.2,13 z m -7.6,10.6 v 42.5 l 8.4,6.5 h -27.3 l 8.1,-6.2 v -43.1 l -8.1,-6.3 h 27.3 z"
   id="path87" />
		<path
   d="m 446,310.7 v -45.1 h -8.7 l -13,16.4 1.5,-20.8 h 51.3 l 1.5,20.8 -13,-16.4 h -8.8 v 44.8 l 8.4,6.5 h -27.3 z"
   id="path89" />
		<path
   d="m 489.3,310.7 v -43.1 l -8.1,-6.3 h 14.1 c 0,0 10.2,-0.1 18.4,-0.1 10.1,0 16,6.5 16,13.8 0,6.2 -2.9,12.1 -14.2,15.1 l 22.1,30.3 C 524.2,320.3 510,299 501.5,290.6 H 500 v 19.7 l 8.4,6.5 h -27.3 z m 10.9,-45.5 v 22 c 8.7,0 18.1,0 18.1,-11.1 0,-4.3 -1.6,-8 -4.6,-9.4 -2.9,-1.5 -6.5,-1.5 -11.3,-1.5 z"
   id="path91" />
		<path
   d="m 574.4,265.7 h -17 v 20.4 h 10 l 7.3,-10.8 v 26.4 l -7.3,-10.8 h -10 v 21.2 h 20.2 l 12.4,-17.6 -3.1,22.4 h -48.4 l 8.1,-6.2 v -43.1 l -8.1,-6.3 h 47.3 l 1.5,20.8 z"
   id="path93" />
	</g>
	<path
   class="st0"
   d="m 319.4,246.7 c 1.9,0 3.7,-0.4 5.2,-0.8 2.6,-2.2 4.4,-5 5.9,-8.2 l -2.1,0.2 c 1.2,-0.8 2.3,-1.9 3.2,-2.9 0.6,-1.7 1.2,-3.5 1.9,-5.4 -5.9,5.2 -12.5,8.1 -18.1,12.4 -5.6,4.3 -8,8.2 -10.6,15.3 h 0.4 l 3.9,-6.4 c 0,0 4.1,1.4 11.6,-2.4 0.3,-0.2 0.6,-0.3 0.9,-0.5 z"
   id="path97" />
</g>
<path
   style="fill:#333333;stroke-width:0.584226"
   d="m 77.117819,86.791693 c 0,-0.141882 1.57741,-1.471756 3.505355,-2.955276 L 84.12853,81.139108 V 59.556286 37.973465 l -3.505356,-2.722154 c -1.927945,-1.497185 -3.505355,-2.811419 -3.505355,-2.92052 0,-0.109102 10.2114,-0.198366 22.692,-0.198366 h 22.692001 l 0.70144,9.128469 c 0.38579,5.020659 0.59929,9.230614 0.47445,9.355457 -0.12484,0.124843 -2.91384,-3.194264 -6.19776,-7.375792 l -5.97077,-7.602779 h -8.72441 -8.7244 v 10.516066 10.516066 l 5.40409,-0.01114 5.40409,-0.01114 3.35509,-5.100833 3.3551,-5.100834 0.004,12.239533 c 0.002,6.910172 -0.21549,11.997867 -0.50036,11.684518 -0.27752,-0.305258 -1.86294,-2.592503 -3.52316,-5.082766 l -3.01859,-4.527754 H 99.300599 94.06037 V 71.859788 82.96008 l 10.37001,-0.0107 10.37001,-0.0107 5.50971,-7.868097 c 3.03035,-4.327453 5.616,-7.761818 5.74589,-7.631922 0.1299,0.129895 -0.355,4.595509 -1.07756,9.923587 l -1.31373,9.687413 h -23.27344 c -12.800393,0 -23.273441,-0.116085 -23.273441,-0.257966 z"
   id="path417" /><path
   style="fill:#333333;stroke-width:0.584226"
   d="M 4.5874944,84.299173 8.1791626,81.548686 V 59.540619 37.532552 L 4.865906,34.978545 1.5526493,32.424537 7.8187887,32.258394 c 3.4463773,-0.09138 8.9125153,-0.09138 12.1469753,0 l 5.880836,0.166143 -3.575686,2.774464 -3.575685,2.774464 v 22.493306 22.493307 h 9.596751 9.596752 l 5.885234,-7.972128 c 4.398014,-5.95754 5.88671,-7.618447 5.891068,-6.572542 0.0032,0.769773 -0.304709,5.277387 -0.684259,10.016919 l -0.690092,8.617332 H 24.643255 0.99582631 Z"
   id="path419" /><path
   style="fill:#333333;stroke-width:0.584226"
   d="m 60.016407,56.31631 c -0.176523,-0.176524 0.465336,-1.585823 1.426353,-3.131776 2.006853,-3.228351 2.841366,-6.258639 2.200595,-7.990808 -0.244298,-0.6604 -1.375873,-1.750441 -2.514612,-2.422314 -5.081493,-2.998153 -2.865943,-10.638987 3.0849,-10.638987 5.950498,0 8.558855,7.711032 5.040732,14.901815 -1.909283,3.902435 -8.248312,10.271726 -9.237968,9.28207 z"
   id="path421" /><path
   style="fill:#333333;stroke-width:0.584226"
   d="m 134.37196,86.84373 c 0,-0.113262 1.57741,-1.445214 3.50535,-2.959894 l 3.50536,-2.753964 V 59.551669 37.973465 l -3.57329,-2.774464 -3.57329,-2.774464 16.38023,-0.155076 c 15.23134,-0.1442 16.60185,-0.07216 19.53981,1.027069 13.79824,5.162585 13.74041,22.732495 -0.0959,29.122348 -2.86407,1.322682 -4.21177,1.536296 -11.00476,1.744291 l -7.74099,0.237021 v 8.295026 8.295026 l 3.79747,2.868469 c 2.0886,1.577657 3.79746,2.941026 3.79746,3.029708 0,0.08868 -5.52093,0.16124 -12.26874,0.16124 -6.74781,0 -12.26874,-0.09267 -12.26874,-0.205929 z M 161.9926,60.140139 c 2.93771,-0.815809 6.02265,-3.610378 6.92646,-6.274502 1.22352,-3.606557 0.90701,-10.020799 -0.65356,-13.244508 -1.73233,-3.578517 -4.23822,-4.724479 -11.5469,-5.280497 l -5.40409,-0.411123 v 12.914992 12.914993 l 4.23564,-0.0033 c 2.3296,-0.0018 5.2287,-0.279035 6.44245,-0.616096 z"
   id="path423" /><path
   style="fill:#333333;stroke-width:0.584226"
   d="m 189.16802,84.278993 3.62653,-2.770666 V 59.519585 37.530842 l -3.3593,-2.553152 -3.3593,-2.553153 6.31218,-0.166143 c 3.4717,-0.09138 8.96252,-0.09138 12.20182,0 l 5.88964,0.166143 -3.58449,2.813837 -3.58449,2.813837 v 21.55801 21.558009 l 3.8846,2.940715 3.88459,2.940714 H 198.31065 185.5415 Z"
   id="path425" /><path
   style="fill:#333333;stroke-width:0.584226"
   d="m 184.85083,26.782699 c -0.32262,-0.522015 4.79124,-5.623916 11.44907,-11.422302 l 2.04479,-1.780832 6.79436,6.209244 c 3.96038,3.619321 6.58614,6.434593 6.29517,6.74951 -0.29843,0.323004 -3.06902,-0.652202 -6.8896,-2.425045 l -6.39043,-2.965311 -6.46571,3.118268 c -3.9571,1.908418 -6.61002,2.884776 -6.83765,2.516468 z"
   id="path427" /><path
   style="fill:#333333;stroke-width:0.584226"
   d="m 232.41223,84.363281 3.61503,-2.686379 V 58.657341 35.63778 l -4.52775,0.02197 -4.52775,0.02198 -6.06411,7.719018 -6.06412,7.719017 0.39536,-7.594936 c 0.21744,-4.177216 0.54371,-8.449367 0.72504,-9.493671 l 0.32969,-1.898734 h 25.34881 25.34881 v 1.343781 c 0,0.73908 0.28038,4.840389 0.62307,9.114022 0.34269,4.273633 0.51758,7.875735 0.38865,8.004673 -0.12894,0.128938 -2.92007,-3.183667 -6.20251,-7.361344 l -5.96806,-7.595777 h -4.64453 -4.64453 v 22.714869 22.714869 l 3.8745,2.991071 3.87449,2.99107 h -12.74757 -12.74756 z"
   id="path429" /><path
   style="fill:#333333;stroke-width:0.584226"
   d="m 186.36806,86.8597 c 0,-0.104478 1.44029,-1.22181 3.20065,-2.48296 l 3.20064,-2.293001 0.0126,-22.539716 0.0126,-22.539716 -2.77508,-1.997772 -2.77507,-1.997772 5.37375,-0.167578 c 2.95555,-0.09217 7.93552,-0.09217 11.06659,0 l 5.69286,0.167578 -3.03349,2.310898 -3.0335,2.310897 v 21.959064 21.959064 l 3.59167,2.750487 3.59167,2.750486 h -12.06294 c -6.63462,0 -12.06295,-0.08548 -12.06295,-0.189959 z"
   id="path431" /><path
   style="fill:#333333;stroke-width:0.584226"
   d="m 323.0907,89.584125 c -6.27945,-2.197283 -12.4814,-7.532137 -23.83126,-20.499412 -4.52896,-5.174359 -7.70248,-8.325219 -8.3851,-8.325219 -1.03288,0 -1.09829,0.606198 -1.09829,10.177352 v 10.177353 l 3.84572,2.821673 3.84572,2.821674 -6.50712,0.165493 c -3.57891,0.09102 -9.25864,0.09102 -12.62161,0 l -6.11448,-0.165493 3.80996,-2.760895 3.80997,-2.760895 V 59.604611 37.973465 l -3.57323,-2.774464 -3.57322,-2.774464 17.61242,-0.154649 c 16.91929,-0.148563 17.72755,-0.105123 20.53779,1.103808 8.00792,3.444915 10.89565,12.651391 6.16786,19.663987 -1.71584,2.545068 -5.67051,5.11337 -10.71279,6.957268 -1.2077,0.441641 -0.58899,1.434893 9.49367,15.240699 5.93206,8.122549 10.78557,14.892266 10.78557,15.043814 0,0.426433 -0.66317,0.294363 -3.49158,-0.695339 z M 300.28041,57.202069 c 3.43245,-0.736127 6.25559,-2.873577 7.39397,-5.59809 1.20251,-2.878018 1.00894,-8.148557 -0.40667,-11.07282 -1.66689,-3.443335 -4.4884,-4.689712 -11.79546,-5.210543 l -5.6962,-0.406013 v 11.461881 11.46188 h 3.76871 c 2.07279,0 5.10383,-0.286332 6.73565,-0.636295 z"
   id="path433" /><path
   style="fill:#333333;stroke-width:0.584226"
   d="m 330.08763,86.791693 c 0,-0.141882 1.57741,-1.471756 3.50536,-2.955276 l 3.50535,-2.697309 -0.0235,-21.728269 -0.0235,-21.728268 -3.52339,-2.629017 -3.52338,-2.629017 22.62464,-0.153001 c 12.44356,-0.08415 22.68614,-0.08415 22.76129,0 0.25969,0.290781 1.49286,18.108958 1.2688,18.333016 -0.12363,0.12363 -2.91041,-3.193318 -6.19285,-7.370995 L 364.4984,35.63778 h -8.73411 -8.7341 v 10.516066 10.516066 l 5.40408,-0.01114 5.40409,-0.01114 3.3551,-5.100833 3.35509,-5.100834 0.004,12.239533 c 0.002,6.910172 -0.2155,11.997867 -0.50037,11.684518 -0.27751,-0.305258 -1.86293,-2.592503 -3.52316,-5.082766 l -3.01859,-4.527754 h -5.24023 -5.24022 V 71.859788 82.96008 l 10.37,-0.0051 10.37001,-0.0051 5.51318,-7.870207 c 3.03225,-4.328614 5.61948,-7.763911 5.7494,-7.633992 0.12992,0.129918 -0.35049,4.593972 -1.06756,9.92012 l -1.30378,9.683942 h -23.2869 c -12.8078,0 -23.28691,-0.116085 -23.28691,-0.257966 z"
   id="path435" /><path
   style="fill:#333333;stroke-width:0.584226"
   d="m 4.8281604,84.566699 3.2947705,-2.48296 0.028116,-22.539716 0.028116,-22.539716 -2.775073,-1.997772 -2.775073,-1.997772 5.3737443,-0.167578 c 2.9555588,-0.09217 7.9455268,-0.09217 11.0888178,0 l 5.715074,0.167578 -3.055712,2.240605 -3.055712,2.240605 3.66e-4,22.588996 3.65e-4,22.588996 9.962081,-0.0931 9.96208,-0.0931 4.692795,-6.333381 c 2.581037,-3.48336 4.965132,-6.596284 5.297988,-6.917608 0.611469,-0.590284 0.221618,11.823864 -0.499952,15.920156 l -0.334466,1.898734 H 24.654938 1.5333902 Z"
   id="path462" /><path
   style="fill:#333333;stroke-width:0.584226"
   d="m 87.376049,86.48803 -9.313337,-0.31471 3.032909,-2.310897 3.032909,-2.310897 V 59.533833 37.51614 l -2.959446,-2.253688 -2.959446,-2.253689 9.239875,-0.35905 c 5.08193,-0.197477 14.925117,-0.394653 21.873757,-0.438169 l 12.63389,-0.07912 0.36514,1.825705 c 0.20083,1.004139 0.36514,3.043362 0.36514,4.531608 0,1.488246 0.20391,3.492871 0.45314,4.454723 0.24922,0.961851 0.31495,2.873754 0.14605,4.248673 l -0.30708,2.499854 -5.34056,-6.79247 -5.34056,-6.792469 -9.11862,-0.08908 -9.11862,-0.08908 -4.1e-4,10.37001 -4.1e-4,10.370009 h 5.539947 5.539943 l 3.22345,-4.814663 3.22344,-4.814664 -0.002,3.792269 c -0.001,2.085747 -0.17386,7.15489 -0.38347,11.264761 l -0.38107,7.472494 -2.90937,-4.405308 -2.90938,-4.405307 H 99.530916 94.06037 l -4e-5,10.954235 -4.1e-5,10.954236 10.662161,-0.10325 10.66217,-0.10325 4.94122,-6.900477 c 4.46177,-6.230901 4.97714,-6.759431 5.31132,-5.446895 0.20354,0.799469 0.1891,1.716481 -0.0321,2.037806 -0.22121,0.321324 -0.72653,3.344693 -1.12294,6.718598 -0.39642,3.373904 -0.84866,6.594449 -1.00498,7.156767 -0.26132,0.940032 -1.35177,1.012449 -13.53599,0.898935 -7.28847,-0.0679 -17.442768,-0.265079 -22.565104,-0.438169 z"
   id="path464" /><path
   style="fill:#333333;stroke-width:0.584226"
   d="m 139.93047,86.540553 -4.66545,-0.367233 3.05882,-2.240605 3.05883,-2.240604 V 59.610625 37.52914 l -1.97269,-1.50464 c -1.08497,-0.827553 -2.08081,-1.396516 -2.21296,-1.264363 -0.13215,0.132153 -0.56118,-0.273569 -0.9534,-0.901604 -0.70117,-1.122762 -0.44067,-1.141883 15.55685,-1.141883 h 16.26996 l 3.60683,1.802353 c 5.50215,2.74946 8.26432,7.122161 8.26432,13.083011 0,5.856625 -3.77908,11.488839 -9.59918,14.3063 -2.55515,1.23693 -9.44373,2.1554 -17.42127,2.322818 l -1.60662,0.03372 0.0281,8.617332 0.0281,8.617332 3.29477,2.48296 3.29477,2.48296 h -2.3584 c -1.29712,0 -4.3041,0.09953 -6.68218,0.221177 -2.37809,0.121646 -6.42324,0.05592 -8.98923,-0.146057 z m 24.91882,-27.481054 c 1.12891,-0.774334 2.68612,-2.332481 3.46045,-3.462549 1.23328,-1.79985 1.40788,-2.712074 1.40788,-7.355508 0,-5.815143 -1.08802,-8.922973 -3.83755,-10.961621 -1.49941,-1.111735 -5.62415,-1.987342 -11.20626,-2.378883 l -3.3593,-0.235629 v 13.101839 13.101838 l 5.7411,-0.200803 c 4.91392,-0.17187 6.03684,-0.403651 7.79368,-1.608684 z"
   id="path466" /><path
   style="fill:#333333;stroke-width:0.584226"
   d="m 186.88512,24.782301 c 0.59852,-0.760894 3.39223,-3.488035 6.20824,-6.060313 l 5.12003,-4.676869 3.27889,2.863048 c 4.78028,4.174014 9.88245,9.610255 8.59453,9.157268 -0.61096,-0.21489 -3.58487,-1.480003 -6.60868,-2.811361 l -5.49783,-2.420651 -4.63767,2.26112 c -2.55071,1.243617 -4.63785,2.405659 -4.63808,2.582316 -2.2e-4,0.176656 -0.65454,0.358925 -1.45403,0.40504 -1.44713,0.08347 -1.44876,0.07767 -0.3654,-1.299598 z"
   id="path468" /><path
   style="fill:#333333;stroke-width:0.584226"
   d="m 186.36806,86.8597 c 0,-0.104478 1.44029,-1.22181 3.20065,-2.48296 l 3.20064,-2.293001 0.0126,-22.539716 0.0126,-22.539716 -2.77508,-1.997772 -2.77507,-1.997772 5.37375,-0.167578 c 2.95555,-0.09217 7.93552,-0.09217 11.06659,0 l 5.69286,0.167578 -3.03349,2.310898 -3.0335,2.310897 v 21.971953 21.971953 l 2.69993,2.007315 c 1.48497,1.104023 2.90599,1.949902 3.15783,1.879732 0.25184,-0.07017 0.60603,0.258455 0.78709,0.730282 0.28286,0.737119 -1.35397,0.857866 -11.6291,0.857866 -6.57706,0 -11.9583,-0.08548 -11.9583,-0.189959 z"
   id="path470" /><path
   style="fill:#333333;stroke-width:0.584226"
   d="m 232.69096,84.600474 3.3363,-2.449184 V 58.894535 35.63778 l -4.81986,0.03246 -4.81986,0.03246 -5.55015,7.204834 c -3.05258,3.962659 -5.58843,7.168599 -5.63523,7.124311 -0.0468,-0.04429 0.15107,-3.629697 0.43971,-7.967574 0.28864,-4.337877 0.40925,-8.193919 0.26803,-8.568982 -0.14122,-0.375063 0.14249,-0.835141 0.63047,-1.022396 0.48798,-0.187254 12.03905,-0.340462 25.66905,-0.340462 h 24.78182 l 0.0145,1.898734 c 0.008,1.044304 0.14771,3.739045 0.31047,5.988315 0.28132,3.887955 0.32421,9.185238 0.0764,9.433075 -0.0635,0.06348 -2.60459,-3.01887 -5.6469,-6.849673 l -5.53147,-6.965096 h -4.83547 -4.83546 v 22.935273 22.935274 l 3.62652,2.770666 3.62653,2.770666 H 241.5755 229.35463 Z"
   id="path472" /><path
   style="fill:#333333;stroke-width:0.584226"
   d="m 321.44656,88.520394 c -5.80301,-2.70159 -10.45672,-6.914481 -23.72807,-21.480472 -8.01415,-8.795945 -7.94244,-8.833292 -7.94244,4.1366 V 81.59355 l 2.55121,1.832145 c 1.40317,1.00768 2.6852,1.698163 2.84896,1.534406 0.16375,-0.163756 0.45342,0.107952 0.64369,0.603797 0.3046,0.79378 -1.03099,0.901535 -11.17416,0.901535 h -11.52011 l 3.35928,-2.383102 3.35929,-2.383103 V 59.594601 37.489973 l -3.05288,-2.240605 -3.05288,-2.240605 17.45583,-0.154887 c 16.63957,-0.147645 17.57285,-0.09824 19.95829,1.056532 6.60045,3.195224 9.51868,10.521909 6.68096,16.773623 -1.47069,3.240055 -3.51235,5.080025 -8.33986,7.516008 -2.16894,1.094454 -3.94254,2.183789 -3.94134,2.420743 0.001,0.236953 0.49996,1.247145 1.10836,2.244871 0.93262,1.529417 17.14981,24.156603 18.90319,26.374853 0.92013,1.164079 -0.66594,0.886678 -4.11732,-0.720112 z M 303.88552,55.944047 c 3.43961,-2.015747 4.58576,-4.389655 4.58576,-9.498088 0,-8.285473 -3.10012,-10.673147 -15.04382,-11.586577 l -3.65141,-0.279252 v 11.697067 11.697067 l 5.71422,-0.229514 c 4.9055,-0.197031 6.09366,-0.451879 8.39525,-1.800703 z"
   id="path474" /><path
   style="fill:#333333;stroke-width:0.584226"
   d="m 320.15604,87.846437 c -4.52955,-2.266041 -11.66655,-8.86844 -22.54071,-20.85228 -2.93837,-3.238223 -5.71976,-5.785699 -6.37872,-5.842259 -1.12254,-0.09635 -1.1747,0.303733 -1.32764,10.183394 l -0.15918,10.283686 2.49609,1.675025 c 1.37285,0.921264 2.66833,1.625676 2.87884,1.565361 0.21051,-0.06032 0.53089,0.276376 0.71195,0.748203 0.28259,0.736429 -1.29832,0.857866 -11.16794,0.857866 H 273.1716 l 3.3363,-2.449185 3.33631,-2.449184 V 59.528519 37.489973 l -3.05288,-2.240605 -3.05288,-2.240605 17.45583,-0.154887 c 16.63957,-0.147645 17.57285,-0.09824 19.95829,1.056532 6.60045,3.195224 9.51868,10.521909 6.68096,16.773623 -1.47069,3.240055 -3.51235,5.080025 -8.33986,7.516008 -2.16894,1.094454 -3.94352,2.200226 -3.94352,2.457269 0,0.728218 14.17354,20.953771 20.03036,28.583198 1.02316,1.332824 -1.02683,0.805983 -5.42447,-1.394069 z M 301.09635,57.203 c 1.24564,-0.345867 3.34249,-1.634109 4.65967,-2.86276 2.33012,-2.173511 2.40083,-2.351869 2.61518,-6.596622 0.41714,-8.26071 -2.48645,-11.609899 -10.75428,-12.404683 -1.90255,-0.182891 -4.44506,-0.456478 -5.65003,-0.607972 l -2.19084,-0.275443 v 11.691422 11.691422 l 4.52775,-0.0033 c 2.49026,-0.0018 5.54691,-0.28624 6.79255,-0.632107 z"
   id="path476" /><path
   style="fill:#333333;stroke-width:0.584226"
   d="m 340.34586,86.48803 -9.31333,-0.31471 3.03291,-2.310897 3.0329,-2.310897 V 59.482321 37.413116 l -2.95009,-2.202176 -2.9501,-2.202177 21.7355,-0.153257 c 11.95452,-0.08429 21.86307,-0.02568 22.01899,0.130245 0.44133,0.44132 1.37301,11.81553 1.17435,14.336633 l -0.17762,2.254113 -5.36025,-6.734157 -5.36025,-6.734157 -9.09893,-0.08914 -9.09894,-0.08915 -4e-4,10.37001 -4.1e-4,10.370009 h 5.53994 5.53995 l 3.22344,-4.814663 3.22344,-4.814664 -0.002,3.792269 c -10e-4,2.085747 -0.17387,7.15489 -0.38347,11.264761 l -0.38108,7.472494 -2.90937,-4.405308 -2.90937,-4.405307 h -5.47055 -5.47054 l 4.1e-4,10.954235 4.1e-4,10.954236 h 10.75886 c 10.12931,0 10.801,-0.06837 11.47905,-1.168452 2.1622,-3.507979 8.87877,-12.602064 9.12534,-12.355494 0.29228,0.292281 -1.39544,15.001144 -1.93722,16.883245 -0.27052,0.939775 -1.36518,1.012418 -13.54607,0.898935 -7.28847,-0.0679 -17.44277,-0.265079 -22.56511,-0.438169 z"
   id="path478" /><path
   style="fill:#333333;stroke-width:0.584226"
   d="m 340.34586,86.48803 -9.31333,-0.31471 3.03291,-2.310897 3.0329,-2.310897 V 59.482321 37.413116 l -2.95009,-2.202176 -2.9501,-2.202177 21.7355,-0.153257 c 11.95452,-0.08429 21.86307,-0.02568 22.01899,0.130245 0.44291,0.442903 1.37251,11.818048 1.17435,14.369959 l -0.17762,2.287438 -5.38349,-6.767403 -5.38349,-6.767403 -9.07569,-0.08922 -9.0757,-0.08922 -4e-4,10.37001 -4.1e-4,10.370009 h 5.53994 5.53995 l 3.22344,-4.814663 3.22344,-4.814664 v 4.138713 c 0,2.276293 -0.17243,7.345627 -0.38319,11.265188 l -0.38318,7.126475 -2.90966,-4.405733 -2.90965,-4.405734 h -5.47055 -5.47054 l -6.5e-4,10.954235 -6.4e-4,10.954236 10.76437,-0.170683 10.76438,-0.170684 4.76564,-6.743979 c 2.62111,-3.709189 4.90315,-6.606479 5.07121,-6.438423 0.30748,0.307487 -1.37029,14.976433 -1.93102,16.883068 -0.27634,0.939612 -1.37367,1.012399 -13.55245,0.898935 -7.28848,-0.0679 -17.44277,-0.265079 -22.56511,-0.438169 z"
   id="path480" /><path
   style="fill:#333333;stroke-width:0.584226"
   d="m 1.7526777,86.8597 c 0,-0.104478 1.4402896,-1.22181 3.2006436,-2.48296 l 3.2006436,-2.293001 0.012599,-22.539716 0.012599,-22.539716 -2.775073,-1.997772 -2.775073,-1.997772 5.3737443,-0.167578 c 2.9555588,-0.09217 7.9455268,-0.09217 11.0888178,0 l 5.715074,0.167578 -3.055712,2.240605 -3.055712,2.240605 3.66e-4,22.588996 3.65e-4,22.588996 9.959225,-0.09311 9.959224,-0.09311 4.496903,-6.04126 c 2.473297,-3.322693 4.843127,-6.435612 5.26629,-6.917599 0.639299,-0.728168 0.707783,0.457195 0.405043,7.010711 -0.200389,4.337877 -0.507993,8.478578 -0.683567,9.201558 l -0.319224,1.314508 H 24.766266 c -12.657474,0 -23.0135883,-0.08548 -23.0135883,-0.189959 z"
   id="path482" /><path
   style="fill:#333333;stroke-width:0.584226"
   d="m 87.376049,86.48803 -9.313337,-0.31471 3.032909,-2.310897 3.032909,-2.310897 V 59.52075 37.489973 l -3.056712,-2.240605 -3.056713,-2.240605 9.045028,-0.360846 c 4.974765,-0.198466 14.861727,-0.395642 21.971027,-0.43817 l 12.926,-0.07732 0.36514,1.825705 c 0.20083,1.004139 0.36514,3.043362 0.36514,4.531608 0,1.488246 0.20391,3.492871 0.45314,4.454723 0.24922,0.961851 0.31495,2.877654 0.14605,4.257338 l -0.30708,2.508518 -5.38278,-6.80099 -5.38279,-6.80099 -9.07639,-0.08922 -9.0764,-0.08922 -4.1e-4,10.37001 -4.1e-4,10.370009 h 5.539947 5.539943 l 3.22345,-4.814663 3.22344,-4.814664 v 4.138713 c 0,2.276293 -0.17244,7.345627 -0.38319,11.265188 l -0.38319,7.126475 -2.90965,-4.405733 -2.90966,-4.405734 H 99.530916 94.06037 l -4e-5,10.954235 -4.1e-5,10.954236 10.662161,-0.116635 10.66217,-0.116637 4.945,-6.871101 c 4.44345,-6.174187 4.98216,-6.725291 5.31131,-5.43351 0.20147,0.790675 0.18394,1.700492 -0.039,2.021817 -0.2229,0.321324 -0.72044,3.344693 -1.10564,6.718598 -0.3852,3.373904 -0.83605,6.594449 -1.00188,7.156767 -0.2771,0.939591 -1.37479,1.012396 -13.55329,0.898935 -7.28848,-0.0679 -17.442773,-0.265079 -22.565109,-0.438169 z"
   id="path484" /><path
   style="fill:#333333;stroke-width:0.584226"
   d="m 60.759494,55.282933 c 0,-0.120191 0.637414,-1.368974 1.416476,-2.775073 0.779061,-1.4061 1.592403,-3.51779 1.807425,-4.692644 0.35596,-1.944917 0.180854,-2.346195 -1.956479,-4.483529 -3.053769,-3.053768 -3.765089,-4.463523 -3.306251,-6.552602 0.508784,-2.316476 2.869563,-4.062435 5.492978,-4.062435 2.851813,0 4.425978,1.222714 5.628716,4.372036 1.173855,3.073699 0.861273,6.189748 -0.983697,9.806187 -1.731319,3.393666 -8.099168,9.988652 -8.099168,8.38806 z"
   id="path486" /><path
   style="fill:#333333;stroke-width:0.584226"
   d="m 139.63798,86.530255 -4.3737,-0.356935 3.05919,-2.240605 3.0592,-2.240604 V 59.610625 37.52914 l -1.97269,-1.50464 c -1.08497,-0.827553 -2.08081,-1.396516 -2.21296,-1.264363 -0.13215,0.132153 -0.56118,-0.273569 -0.9534,-0.901604 -0.70117,-1.122762 -0.44067,-1.141883 15.55685,-1.141883 h 16.26996 l 3.60683,1.802353 c 5.50626,2.751511 8.26432,7.121853 8.26432,13.095408 0,5.418993 -2.59212,9.934784 -7.51658,13.0948 -3.30995,2.123988 -6.51289,2.839185 -14.83006,3.311458 l -6.28043,0.35662 0.0126,8.561112 0.0126,8.561112 3.19787,2.290991 c 1.75883,1.260045 3.13339,2.346334 3.05458,2.413976 -0.44011,0.377761 -14.2473,0.62829 -17.95418,0.325775 z M 162.495,60.162732 c 1.26638,-0.351752 3.06896,-1.614324 4.46121,-3.124736 2.66179,-2.887707 3.46844,-6.298466 2.74681,-11.614432 -0.92512,-6.815061 -3.93068,-9.464256 -11.46945,-10.109514 -2.0382,-0.174454 -4.4288,-0.429311 -5.31244,-0.56635 l -1.60662,-0.249161 v 13.130478 13.130477 l 4.52775,-0.0033 c 2.49026,-0.0018 5.484,-0.268868 6.65274,-0.593503 z"
   id="path488" /><path
   style="fill:#333333;stroke-width:0.584226"
   d="m 186.36806,86.8597 c 0,-0.104478 1.44029,-1.22181 3.20065,-2.48296 l 3.20064,-2.293001 0.0126,-22.539716 0.0126,-22.539716 -2.77508,-1.997772 -2.77507,-1.997772 5.37375,-0.167578 c 2.95555,-0.09217 7.93552,-0.09217 11.06659,0 l 5.69286,0.167578 -3.03349,2.310898 -3.0335,2.310897 V 59.612054 81.59355 l 2.57847,1.851716 c 1.41816,1.018443 2.83599,1.851715 3.15074,1.851715 0.31475,0 0.72359,0.394353 0.90855,0.876339 0.29217,0.761379 -1.23244,0.876339 -11.62201,0.876339 -6.57706,0 -11.9583,-0.08548 -11.9583,-0.189959 z"
   id="path490" /><path
   style="fill:#333333;stroke-width:0.584226"
   d="m 229.60078,86.828692 c 0,-0.121532 1.44596,-1.216838 3.21324,-2.434012 l 3.21324,-2.213045 V 58.909707 35.63778 l -4.81986,0.0346 -4.81986,0.0346 -5.55015,7.212318 c -3.05258,3.966775 -5.58843,7.171749 -5.63523,7.122164 -0.0468,-0.04959 0.15107,-3.639327 0.43971,-7.977204 0.28864,-4.337877 0.40925,-8.193919 0.26803,-8.568982 -0.14122,-0.375063 0.14249,-0.835141 0.63047,-1.022396 0.48798,-0.187254 12.03905,-0.340462 25.66905,-0.340462 h 24.78182 l 0.0147,1.898734 c 0.008,1.044304 0.15662,3.739045 0.33006,5.988315 0.29066,3.769626 0.32489,9.173095 0.0597,9.423912 -0.0618,0.05844 -2.60992,-3.019852 -5.6625,-6.840655 l -5.55014,-6.946917 -4.81987,-0.009 -4.81986,-0.009 V 58.613459 81.58911 l 3.50536,2.539447 c 1.92794,1.396696 3.50535,2.625325 3.50535,2.730288 0,0.104962 -5.38948,0.190841 -11.97663,0.190841 -6.58715,0 -11.97663,-0.09943 -11.97663,-0.220967 z"
   id="path492" /><path
   style="fill:#333333;stroke-width:0.584226"
   d="m 186.88512,24.782301 c 0.59852,-0.760894 3.39195,-3.487785 6.20763,-6.059756 l 5.11942,-4.676313 2.69528,2.279875 c 3.36381,2.845368 10.39877,9.964059 9.84686,9.964059 -0.22528,0 -3.20175,-1.222813 -6.61439,-2.717361 l -6.20479,-2.717362 -4.61508,2.250111 c -2.5383,1.237561 -4.61527,2.394648 -4.6155,2.571305 -2.2e-4,0.176656 -0.65454,0.358925 -1.45403,0.40504 -1.44713,0.08347 -1.44876,0.07767 -0.3654,-1.299598 z"
   id="path494" /><path
   style="fill:#333333;stroke-width:0.584226"
   d="m 229.60078,86.828692 c 0,-0.121532 1.44596,-1.216838 3.21324,-2.434012 l 3.21324,-2.213045 V 58.909707 35.63778 h -4.67314 -4.67314 l -4.70966,5.957452 c -2.59031,3.276599 -5.22753,6.628595 -5.86048,7.44888 l -1.15083,1.491428 0.29662,-3.213242 c 0.16313,-1.767283 0.36821,-5.710808 0.45573,-8.763389 0.0875,-3.05258 0.42201,-5.743296 0.74334,-5.979369 0.32132,-0.236073 11.82327,-0.433249 25.55988,-0.438169 l 24.97566,-0.0089 0.0197,1.898734 c 0.0108,1.044304 0.15014,3.476144 0.30958,5.404089 0.30963,3.74425 0.36402,9.725402 0.0909,9.998505 -0.0908,0.09081 -2.65434,-2.97528 -5.69674,-6.813531 l -5.53163,-6.978637 -4.81987,-0.0019 -4.81986,-0.0019 0.0123,22.930867 0.0123,22.930866 3.49301,2.615138 c 1.92116,1.438327 3.49302,2.687109 3.49302,2.775073 0,0.08796 -5.38948,0.159935 -11.97663,0.159935 -6.58715,0 -11.97663,-0.09943 -11.97663,-0.220967 z"
   id="path496" /><path
   style="fill:#333333;stroke-width:0.584226"
   d="m 321.03213,88.303678 c -4.98574,-2.369855 -9.05617,-5.905475 -18.4586,-16.033346 -9.69247,-10.440292 -11.51172,-12.052735 -12.26188,-10.86795 -0.28474,0.449722 -0.51612,5.155554 -0.51418,10.457404 l 0.004,9.639727 2.27172,1.606621 c 1.24945,0.883642 2.53021,1.606622 2.84615,1.606622 0.31594,0 0.72576,0.394352 0.91071,0.876338 0.29185,0.760475 -1.1675,0.876339 -11.03776,0.876339 -6.25574,0 -11.37407,-0.08775 -11.37407,-0.195004 0,-0.107253 1.44596,-1.190875 3.21324,-2.408049 l 3.21325,-2.213045 V 59.569654 37.489973 l -3.05288,-2.240605 -3.05288,-2.240605 17.45583,-0.154887 c 16.63957,-0.147645 17.57285,-0.09824 19.95829,1.056532 6.60045,3.195224 9.51868,10.521909 6.68096,16.773623 -1.47069,3.240055 -3.51235,5.080025 -8.33986,7.516008 -2.16894,1.094454 -3.94352,2.188486 -3.94352,2.43118 0,0.242695 0.70242,1.488173 1.56094,2.767728 1.43961,2.145638 17.18649,24.18089 18.46695,25.841559 0.93758,1.215984 -0.74727,0.868768 -4.54591,-0.936828 z M 302.53862,56.71829 c 4.4332,-2.372577 6.03577,-5.196383 5.8692,-10.341802 -0.14388,-4.444419 -1.53963,-7.717656 -3.87828,-9.095112 -1.72217,-1.014354 -6.70127,-2.042296 -11.68631,-2.412654 l -3.06718,-0.227874 v 11.676867 11.676868 l 5.70193,-0.274568 c 3.13606,-0.151012 6.31335,-0.601788 7.06064,-1.001725 z"
   id="path498" /><path
   style="fill:#333333;stroke-width:0.584226"
   d="m 336.51412,86.465433 -5.55015,-0.292113 3.06719,-2.315553 3.06718,-2.315553 V 59.515428 37.488642 l -2.48296,-1.905726 c -1.36562,-1.048149 -2.73271,-2.121847 -3.03797,-2.385995 -0.30526,-0.264149 9.32788,-0.480271 21.40697,-0.480271 h 21.96198 l 0.32055,1.314509 c 0.17631,0.722979 0.48439,4.600779 0.68463,8.617332 l 0.36407,7.302824 -1.93078,-2.336904 c -1.06192,-1.285297 -2.6459,-3.069995 -3.51995,-3.965995 -0.87404,-0.896 -1.53356,-1.704812 -1.46558,-1.79736 0.068,-0.09255 -0.79657,-1.380107 -1.92121,-2.861244 l -2.04479,-2.692977 -9.20237,-0.183471 -9.20236,-0.183471 8.1e-4,10.37001 8.1e-4,10.370009 h 5.53994 5.53995 l 3.22344,-4.814663 3.22344,-4.814664 v 5.015893 c 0,2.758741 -0.17156,7.819907 -0.38125,11.247037 l -0.38126,6.231143 -1.97117,-2.927017 c -1.08414,-1.60986 -2.22708,-2.927018 -2.53987,-2.927018 -0.31279,0 -0.52697,-0.197176 -0.47596,-0.438169 0.051,-0.240993 -0.10856,-0.898248 -0.35461,-1.460565 -0.38043,-0.869394 -1.2686,-1.022395 -5.93501,-1.022395 h -5.48764 l -6.5e-4,10.954235 -6.4e-4,10.954236 10.72305,-0.170385 10.72306,-0.170385 4.86814,-6.806824 c 2.67748,-3.743753 4.97605,-6.483111 5.10793,-6.087463 0.2427,0.728111 -1.44156,14.667358 -2.01113,16.644487 -0.29235,1.014824 -1.22535,1.061971 -17.3423,0.876338 -9.36839,-0.107903 -19.53095,-0.327638 -22.58353,-0.4883 z"
   id="path500" /><path
   style="fill:#333333;stroke-width:0.584226"
   d="m 60.759492,55.502593 c 0,-0.18265 0.624862,-1.572133 1.388582,-3.087741 0.76372,-1.515609 1.579687,-3.639099 1.81326,-4.718867 0.385965,-1.78425 0.185155,-2.210312 -2.202837,-4.673807 -1.445134,-1.490826 -2.810772,-3.321501 -3.034751,-4.068168 -0.908549,-3.02878 2.198357,-6.529473 5.794985,-6.529473 2.501684,0 4.991126,2.789437 5.872247,6.579894 0.428552,1.84357 0.594525,3.351946 0.368828,3.351946 -0.225696,0 -0.720919,1.161158 -1.100496,2.58035 -0.411691,1.53927 -1.877917,4.007613 -3.634085,6.117863 -2.60992,3.136137 -5.265733,5.379521 -5.265733,4.448003 z"
   id="path387" /><path
   style="fill:#333333;stroke-width:0.584226"
   d="m 2.3369036,86.51519 c 0,-0.133296 1.3145082,-1.207293 2.9211294,-2.386662 L 8.1791625,81.984222 V 59.590375 37.196528 L 5.6962024,35.290803 c -1.365628,-1.048149 -2.7327166,-2.121847 -3.0379746,-2.385996 -0.305258,-0.264149 4.6158969,-0.48027 10.9358992,-0.48027 9.974121,0 11.446525,0.115676 11.154632,0.876339 -0.184956,0.481986 -0.59895,0.876339 -0.919987,0.876339 -0.321037,0 -1.607418,0.810796 -2.858624,1.801769 l -2.27492,1.80177 v 22.443605 22.443604 h 9.860374 9.860373 l 5.046472,-6.718597 c 2.77556,-3.695229 5.209312,-6.718598 5.408338,-6.718598 0.409826,0 -0.319273,15.520188 -0.786268,16.737158 -0.247361,0.644612 -4.475761,0.789619 -23.02531,0.789619 -12.497267,0 -22.7223034,-0.10906 -22.7223034,-0.242355 z"
   id="path221" /><path
   style="fill:#333333;stroke-width:0.584226"
   d="m 60.759492,55.502593 c 0,-0.18265 0.624862,-1.572133 1.388582,-3.087741 2.590691,-5.141246 2.548319,-6.139201 -0.395219,-9.308272 -1.427846,-1.537246 -2.785141,-3.405903 -3.016213,-4.15257 -0.933542,-3.016572 2.177262,-6.529473 5.782089,-6.529473 2.486195,0 4.991409,2.790655 5.860148,6.527845 0.421897,1.814944 0.576797,3.520496 0.34422,3.790116 -0.232576,0.26962 -0.857774,1.674479 -1.38933,3.121909 -0.988201,2.690881 -5.44946,8.297925 -7.457202,9.372436 -0.614391,0.328812 -1.117075,0.448399 -1.117075,0.26575 z"
   id="path223" /><path
   style="fill:#333333;stroke-width:0.584226"
   d="m 78.016474,86.280014 c 0.30905,-0.270225 1.810691,-1.488054 3.336981,-2.706287 l 2.775073,-2.214969 V 59.529546 37.700334 L 81.24067,35.500605 c -1.588322,-1.209851 -2.90283,-2.396906 -2.92113,-2.637899 -0.0183,-0.240993 9.807825,-0.438169 21.83583,-0.438169 20.32663,0 21.88977,0.07211 22.16207,1.022395 0.16113,0.562318 0.47547,4.410747 0.69853,8.552064 0.29012,5.386423 0.22397,7.417444 -0.23239,7.135397 -0.35087,-0.21685 -2.89925,-3.276573 -5.66306,-6.799386 l -5.0251,-6.405115 h -9.01753 -9.017522 l 6.43e-4,10.37001 6.42e-4,10.370009 5.602923,-0.06501 5.602924,-0.06502 3.01376,-4.567295 3.01377,-4.567294 0.14994,5.508648 c 0.0825,3.029756 -0.049,7.959886 -0.29211,10.955845 l -0.44205,5.447197 -3.07257,-4.424802 -3.07257,-4.424801 h -5.252652 -5.25265 V 71.56767 82.667962 l 10.662122,-0.01968 10.66212,-0.01968 3.96547,-5.676523 c 2.18101,-3.122087 4.49842,-6.333777 5.14979,-7.137087 l 1.18432,-1.460565 -0.40723,4.089581 c -0.22398,2.24927 -0.49778,5.009737 -0.60845,6.134372 -0.11067,1.124635 -0.40771,3.359299 -0.66007,4.96592 l -0.45886,2.92113 -23.04751,0.152949 c -12.676125,0.08412 -22.794645,-0.06814 -22.485596,-0.338367 z"
   id="path225" /><path
   style="fill:#333333;stroke-width:0.584226"
   d="m 135.56529,86.319375 c 0.0137,-0.240993 1.3282,-1.443257 2.92113,-2.671699 l 2.89625,-2.23353 V 59.592793 37.771441 l -1.76814,-1.358944 c -0.97248,-0.747419 -2.47317,-1.965613 -3.33486,-2.707098 l -1.56672,-1.348153 16.91811,0.179702 16.91811,0.179702 2.92113,1.554454 c 5.76239,3.066408 8.47552,7.289972 8.46557,13.178485 -0.007,4.32571 -1.88632,8.457858 -5.20758,11.452048 -4.4131,3.978497 -7.27439,4.712259 -20.49266,5.25522 l -2.62901,0.107991 -0.16121,8.535701 -0.16121,8.535701 3.2284,2.43746 c 1.77561,1.340603 3.22839,2.560395 3.22839,2.710648 0,0.150253 -4.99513,0.273187 -11.10029,0.273187 -6.10516,0 -11.0891,-0.197177 -11.07541,-0.43817 z M 164.3055,59.122733 c 1.20055,-0.659115 2.89367,-2.224154 3.76249,-3.477864 1.34561,-1.941714 1.58486,-2.900325 1.61466,-6.469475 0.0192,-2.3045 -0.17889,-5.201332 -0.44028,-6.437405 -0.53166,-2.514149 -3.63208,-6.004481 -5.76432,-6.489238 -2.5495,-0.579621 -8.94858,-1.478479 -10.55692,-1.482897 l -1.60662,-0.0044 v 13.166075 13.166073 l 5.40408,-0.386232 c 3.77854,-0.270054 6.06069,-0.74671 7.58691,-1.584623 z"
   id="path227" /><path
   style="fill:#333333;stroke-width:0.584226"
   d="m 187.2444,24.260745 c 1.28529,-1.349008 4.3147,-4.244491 6.732,-6.434406 l 4.39511,-3.981666 6.12096,5.723475 c 3.36653,3.147912 5.93792,5.912103 5.71421,6.142648 -0.22372,0.230545 -3.04272,-0.762912 -6.26446,-2.207681 l -5.8577,-2.626854 -5.12795,2.490033 c -2.82037,1.369518 -5.7852,2.682894 -6.58851,2.918612 -1.30809,0.38384 -1.21661,0.172533 0.87634,-2.024161 z"
   id="path229" /><path
   style="fill:#333333;stroke-width:0.584226"
   d="m 187.23973,86.180877 c 0.19602,-0.317168 1.52604,-1.381404 2.95561,-2.364971 l 2.5992,-1.788302 V 59.625815 37.224026 l -2.95828,-2.253688 -2.95828,-2.253688 5.91049,-0.166838 c 3.25077,-0.09176 8.44076,-0.09176 11.53333,0 l 5.62284,0.166838 -3.31702,2.501886 -3.31701,2.501886 v 21.86472 21.86472 l 3.19107,2.215672 c 1.7551,1.21862 3.20106,2.412848 3.21325,2.653841 0.0122,0.240993 -5.11993,0.43817 -11.40472,0.43817 -7.36931,0 -11.30033,-0.204769 -11.07048,-0.576668 z"
   id="path231" /><path
   style="fill:#333333;stroke-width:0.584226"
   d="m 230.185,86.520235 c 0,-0.13052 1.31451,-1.181689 2.92113,-2.335932 l 2.92113,-2.098622 V 58.715673 35.345666 h -4.27003 c -2.54961,0 -4.63033,0.294235 -5.16428,0.730283 -0.49183,0.401655 -3.18818,3.687926 -5.99189,7.302823 -2.80371,3.614898 -5.21934,6.572542 -5.36807,6.572542 -0.14872,0 -0.13519,-1.643136 0.0301,-3.651412 0.16527,-2.008277 0.45909,-5.951802 0.65295,-8.763389 l 0.35246,-5.111976 h 25.36138 c 19.89136,0 25.36472,0.157509 25.37686,0.730282 0.009,0.401656 0.17502,4.213729 0.37001,8.471276 0.19499,4.257546 0.19244,7.740993 -0.006,7.740993 -0.19809,0 -2.86659,-3.15482 -5.92998,-7.010711 l -5.56982,-7.010711 h -4.66397 -4.66397 v 23.005387 c 0,18.532794 0.15242,23.131892 0.78403,23.65608 0.43122,0.357881 0.8913,0.587248 1.0224,0.509705 0.13109,-0.07754 1.27403,0.844894 2.53986,2.049859 l 2.30151,2.190848 h -11.50307 c -6.32668,0 -11.50306,-0.10679 -11.50306,-0.23731 z"
   id="path233" /><path
   style="fill:#333333;stroke-width:0.584226"
   d="m 322.04923,88.821053 c -5.10248,-2.375527 -8.23117,-4.867149 -15.94144,-12.695418 -4.0515,-4.113501 -7.22222,-7.479093 -7.04607,-7.479093 0.17616,0 -1.37338,-1.708861 -3.44342,-3.797468 -2.07004,-2.088608 -4.07181,-3.797469 -4.44837,-3.797469 -1.19133,0 -1.39389,1.615928 -1.39389,11.120008 v 9.271766 l 2.77507,1.899022 c 5.1925,3.553297 5.49214,3.415144 -7.40715,3.415144 -6.44943,0 -11.72624,-0.123158 -11.72624,-0.273685 0,-0.150526 1.44596,-1.341876 3.21324,-2.647445 l 3.21324,-2.373761 V 59.606922 37.75119 l -3.22374,-2.51727 -3.22375,-2.51727 15.34643,-0.175432 c 8.44054,-0.09649 16.72496,-0.01206 18.40983,0.187621 4.39206,0.520519 8.17912,3.204755 10.22774,7.249338 3.58109,7.07012 0.8894,13.963581 -6.96868,17.846905 -4.97039,2.45628 -4.98153,2.468964 -3.9391,4.484811 0.49062,0.94874 1.33812,2.179066 1.88335,2.734057 0.54523,0.554992 1.38568,1.765733 1.86767,2.690536 0.48198,0.924803 1.57334,2.4285 2.42524,3.341548 0.8519,0.91305 1.44155,1.660089 1.31033,1.660089 -0.13122,0 2.52377,3.827913 5.89997,8.506473 3.37621,4.678561 6.13856,8.622086 6.13856,8.763389 0,0.502044 -0.91515,0.227434 -3.94882,-1.184932 z M 301.78906,56.90894 c 0.98399,-0.302154 2.78059,-1.564786 3.99246,-2.805849 1.92181,-1.968111 2.2439,-2.703227 2.52038,-5.752284 0.21908,-2.416085 0.0219,-4.384315 -0.63851,-6.372535 -1.03792,-3.124894 -2.0425,-4.247994 -4.74227,-5.301759 -1.84648,-0.720715 -9.11237,-1.915073 -11.65037,-1.915073 h -1.49471 v 11.736964 11.736963 l 5.11198,-0.388528 c 2.81158,-0.213691 5.91705,-0.635745 6.90104,-0.937899 z"
   id="path235" /><path
   style="fill:#333333;stroke-width:0.584226"
   d="m 330.67185,86.535623 c 0,-0.122056 1.44596,-1.31363 3.21325,-2.647942 l 3.21324,-2.426021 -0.003,-22.035602 -0.003,-22.035601 -3.21011,-2.319241 c -1.76557,-1.275582 -3.21012,-2.392914 -3.21012,-2.48296 0,-0.09005 9.9596,-0.163719 22.13245,-0.163719 H 374.937 l 0.36318,1.314508 c 0.19975,0.72298 0.52087,4.590112 0.7136,8.593626 0.41398,8.599653 0.78844,8.61799 -6.25599,-0.306353 l -4.81222,-6.096426 h -8.95757 -8.95756 l -1.7e-4,10.37001 -1.6e-4,10.370009 5.64348,-0.10034 5.64348,-0.10034 2.97401,-4.573467 2.97402,-4.573467 0.1928,3.797468 c 0.10603,2.088608 0.0107,7.072054 -0.21181,11.074325 l -0.40461,7.276855 -1.24875,-1.721613 c -0.68682,-0.946888 -1.68693,-2.162077 -2.22247,-2.70042 -0.53554,-0.538343 -0.86155,-1.090959 -0.72448,-1.228035 0.13708,-0.137076 -0.39808,-0.947689 -1.18924,-1.801363 -1.34083,-1.446782 -1.77743,-1.552134 -6.43229,-1.552134 h -4.99381 v 11.100291 11.100292 h 10.42552 c 9.36311,0 10.52417,-0.109017 11.39368,-1.069806 0.53248,-0.588393 0.79232,-1.245647 0.5774,-1.460565 -0.21492,-0.214917 -0.10462,-0.390758 0.2451,-0.390758 0.34973,0 2.42312,-2.521288 4.60755,-5.602863 2.18443,-3.081575 4.06966,-5.308945 4.18941,-4.949711 0.22214,0.666421 -1.48979,15.506107 -1.94188,16.833002 -0.19335,0.567503 -5.33163,0.730283 -23.05196,0.730283 -12.54173,0 -22.80315,-0.09986 -22.80315,-0.221922 z"
   id="path237" /><path
   style="fill:#4d4d4d;stroke-width:0.584226"
   d="m 2.3369036,86.51519 c 0,-0.133296 1.3145082,-1.207293 2.9211294,-2.386662 L 8.1791625,81.984222 V 59.604124 37.224026 L 5.258033,34.996344 C 3.6514118,33.771119 2.3369036,32.691234 2.3369036,32.5966 c 0,-0.09464 5.1183311,-0.172063 11.3740684,-0.172063 9.870259,0 11.329609,0.115864 11.037787,0.876339 -0.184956,0.481986 -0.59895,0.876339 -0.919987,0.876339 -0.321037,0 -1.607418,0.810796 -2.858624,1.801769 l -2.27492,1.80177 v 22.443605 22.443604 h 9.869671 9.869672 l 4.755312,-6.403956 c 2.615422,-3.522175 5.047041,-6.584254 5.403599,-6.804619 0.470677,-0.290894 0.531268,1.807455 0.221163,7.659129 -0.234918,4.432885 -0.563476,8.415119 -0.730128,8.849409 -0.247361,0.644612 -4.475761,0.789619 -23.02531,0.789619 -12.497267,0 -22.7223034,-0.10906 -22.7223034,-0.242355 z"
   id="path230" /><path
   style="fill:#4d4d4d;stroke-width:0.584226"
   d="m 60.928445,55.131255 c 2.545661,-5.8709 3.246616,-7.994402 2.963386,-8.97741 -0.185163,-0.642648 -1.331814,-2.220058 -2.548113,-3.505355 -1.216299,-1.285297 -2.394997,-2.947813 -2.61933,-3.69448 -0.905337,-3.013321 2.195769,-6.529473 5.758735,-6.529473 3.834756,0 7.52256,6.72806 5.924212,10.808179 -1.665787,4.25227 -2.766032,6.169079 -4.952865,8.628708 -2.589501,2.912529 -5.183778,4.786767 -4.526025,3.269831 z"
   id="path232" /><path
   style="fill:#4d4d4d;stroke-width:0.584226"
   d="m 78.016474,86.280014 c 0.30905,-0.270225 1.810691,-1.488054 3.336981,-2.706287 l 2.775073,-2.214969 V 59.563346 37.767935 l -2.896244,-2.23353 c -1.592934,-1.228441 -2.907442,-2.430706 -2.921129,-2.671699 -0.01369,-0.240993 9.81621,-0.438169 21.844215,-0.438169 20.32381,0 21.89032,0.07224 22.16945,1.022395 0.1652,0.562318 0.48364,4.413281 0.70764,8.557696 0.28853,5.338146 0.22343,7.421669 -0.22327,7.145595 -0.34681,-0.214338 -2.92676,-3.276596 -5.73323,-6.805018 l -5.10268,-6.415313 h -8.95645 -8.956462 v 10.550545 c 0,5.8028 0.209412,10.421122 0.465361,10.262937 0.255948,-0.158185 2.819239,-0.339066 5.696201,-0.401958 l 5.23084,-0.114349 2.92113,-4.452385 2.92113,-4.452385 0.19517,3.213242 c 0.10734,1.767284 0.0145,6.700141 -0.20632,10.961904 l -0.40148,7.748662 -1.55796,-1.61429 c -0.85688,-0.887859 -1.4974,-1.713455 -1.42337,-1.834657 0.074,-0.121201 -0.65636,-1.369984 -1.62308,-2.775073 L 104.5203,60.46738 h -5.229966 -5.229966 v 11.100291 11.100292 l 10.662122,-0.02724 10.66212,-0.02724 3.94671,-5.668967 c 2.17069,-3.117929 4.48981,-6.326219 5.1536,-7.129529 l 1.20688,-1.460565 -0.43018,4.381694 c -0.23661,2.409932 -0.5092,5.170399 -0.60575,6.134372 -0.0966,0.963973 -0.38498,3.067186 -0.64093,4.673807 l -0.46536,2.92113 -23.04751,0.152949 c -12.676125,0.08412 -22.794645,-0.06814 -22.485596,-0.338367 z"
   id="path234" /><path
   style="fill:#4d4d4d;stroke-width:0.584226"
   d="m 135.54041,86.298025 c 0,-0.252737 1.3145,-1.440892 2.92113,-2.640346 l 2.92113,-2.180825 V 59.59814 37.719428 l -3.3593,-2.501389 -3.3593,-2.501389 15.76973,-0.155866 c 18.15486,-0.17944 20.07686,0.145139 24.63907,4.160962 3.44341,3.031013 4.84099,6.085565 4.85017,10.600551 0.009,4.458655 -1.82092,8.537756 -5.19475,11.57934 -4.4131,3.978497 -7.27439,4.712259 -20.49266,5.25522 l -2.62901,0.107991 -0.16121,8.535701 -0.16121,8.535701 3.2284,2.43746 c 1.77561,1.340603 3.22839,2.560395 3.22839,2.710648 0,0.150253 -4.99513,0.273187 -11.10029,0.273187 -6.10516,0 -11.10029,-0.206784 -11.10029,-0.45952 z M 162.7433,59.826461 c 2.79227,-0.851793 5.93807,-4.472274 6.64523,-7.647954 0.72892,-3.27337 0.23493,-8.850299 -0.99938,-11.282695 -1.93192,-3.807145 -4.65021,-5.022808 -13.18697,-5.897425 l -3.88767,-0.398304 v 13.265912 13.265911 l 4.81986,-0.379841 c 2.65092,-0.208913 5.62494,-0.625435 6.60893,-0.925604 z"
   id="path236" /><path
   style="fill:#4d4d4d;stroke-width:0.584226"
   d="m 187.2444,24.260745 c 1.28529,-1.349008 4.31954,-4.24886 6.74278,-6.444116 l 4.40587,-3.991375 6.11019,5.729173 c 3.36061,3.151045 5.93297,5.913791 5.71636,6.139435 -0.21661,0.225644 -2.84609,-0.66521 -5.84328,-1.979677 -2.99719,-1.314467 -5.82414,-2.38994 -6.2821,-2.38994 -0.45795,0 -2.95506,1.01976 -5.54912,2.266134 -2.59406,1.246373 -5.37373,2.458953 -6.17704,2.69462 -1.30813,0.383766 -1.21667,0.172496 0.87634,-2.024254 z"
   id="path238" /><path
   style="fill:#4d4d4d;stroke-width:0.584226"
   d="m 187.23973,86.180877 c 0.19602,-0.317168 1.52604,-1.381404 2.95561,-2.364971 l 2.5992,-1.788302 V 59.612732 37.197859 l -3.05548,-2.240604 -3.05548,-2.240605 6.00769,-0.166838 c 3.30423,-0.09176 8.53646,-0.09176 11.62718,0 l 5.6195,0.166838 -3.31367,2.554007 -3.31367,2.554008 v 21.812598 21.812599 l 3.19107,2.215672 c 1.7551,1.21862 3.20106,2.412848 3.21325,2.653841 0.0122,0.240993 -5.11993,0.43817 -11.40472,0.43817 -7.36931,0 -11.30033,-0.204769 -11.07048,-0.576668 z"
   id="path240" /><path
   style="fill:#4d4d4d;stroke-width:0.584226"
   d="m 230.185,86.51519 c 0,-0.133296 1.31451,-1.207293 2.92113,-2.386662 l 2.92113,-2.144306 V 58.59566 35.207099 l -4.72461,0.263056 c -2.59853,0.144681 -4.89892,0.523727 -5.11197,0.842326 -1.10121,1.646739 -10.72415,13.638833 -10.94435,13.638833 -0.25287,0 0.27909,-10.862909 0.64373,-13.145083 0.10268,-0.642648 0.20623,-1.891431 0.23011,-2.775073 l 0.0434,-1.606621 h 25.41383 c 13.9776,0 25.41754,0.06573 25.42208,0.146056 0.005,0.08033 0.15421,3.958131 0.33258,8.617332 l 0.32431,8.471276 -1.84992,-2.044791 c -3.99293,-4.413546 -6.45803,-7.311619 -6.37662,-7.496624 0.0469,-0.10659 -0.74255,-1.223922 -1.75434,-2.48296 l -1.83962,-2.28916 h -4.64628 -4.64627 v 23.005387 c 0,18.532794 0.15242,23.131892 0.78403,23.65608 0.43122,0.357881 0.8913,0.5833 1.0224,0.500931 0.13109,-0.08237 1.28996,0.838589 2.57526,2.046574 l 2.3369,2.196339 -11.53846,0.0033 C 235.37731,86.756067 230.185,86.648485 230.185,86.51519 Z"
   id="path242" /><path
   style="fill:#4d4d4d;stroke-width:0.584226"
   d="m 321.01564,88.28473 c -2.2402,-1.087992 -5.51905,-3.210589 -7.28634,-4.716879 -3.15584,-2.689785 -15.159,-14.94113 -14.6256,-14.928005 0.50401,0.0124 -6.1032,-6.499801 -7.21111,-7.107416 -0.80902,-0.44369 -1.22811,-0.394076 -1.59768,0.189139 -0.27553,0.434831 -0.505,5.052957 -0.50992,10.262503 l -0.009,9.471902 3.65141,2.504729 3.65141,2.504729 -5.98831,0.166494 c -3.29357,0.09157 -8.68306,0.09157 -11.97663,0 l -5.98832,-0.166494 3.3593,-2.501389 3.3593,-2.501389 V 59.591538 37.720422 l -3.3144,-2.501886 -3.3144,-2.501886 15.43709,-0.175432 c 8.4904,-0.09649 16.81561,-0.01206 18.50048,0.187621 4.39206,0.520519 8.17912,3.204755 10.22774,7.249338 3.65978,7.225484 0.91906,13.904958 -7.44808,18.151896 -2.12037,1.076242 -3.96222,2.129949 -4.09301,2.341572 -0.21061,0.340773 2.29981,4.498126 3.17249,5.253768 0.18555,0.160662 0.69713,0.991058 1.13685,1.845324 0.43972,0.854267 1.55663,2.382177 2.48203,3.395356 0.9254,1.01318 1.68254,1.995322 1.68254,2.182538 0,0.187215 2.62901,3.983513 5.84226,8.436216 3.21324,4.452703 5.84226,8.226825 5.84226,8.386938 0,0.586464 -0.9946,0.249692 -4.98241,-1.687055 z M 300.49078,57.169798 c 1.56581,-0.229106 3.00521,-1.060043 4.76538,-2.750975 3.01329,-2.894769 3.79889,-6.195105 2.67262,-11.227827 -1.20513,-5.385081 -4.3194,-7.173646 -14.26507,-8.192609 l -3.88767,-0.398304 v 11.82449 11.824491 l 4.23564,-0.375505 c 2.3296,-0.206528 5.24519,-0.523221 6.4791,-0.703761 z"
   id="path244" /><path
   style="fill:#4d4d4d;stroke-width:0.584226"
   d="m 330.67185,86.536479 c 0,-0.121586 1.44596,-1.336615 3.21325,-2.700064 l 3.21324,-2.478998 -0.0126,-21.98348 -0.0126,-21.98348 -3.20064,-2.293001 c -1.76036,-1.26115 -3.20065,-2.378482 -3.20065,-2.48296 0,-0.104477 9.9596,-0.189959 22.13245,-0.189959 h 22.13244 l 0.36991,1.314508 c 0.20345,0.72298 0.52806,4.593015 0.72137,8.600079 0.41537,8.610486 0.78777,8.629063 -6.27049,-0.312806 l -4.81222,-6.096426 h -8.95757 -8.95756 V 46.175001 56.42011 l 5.68998,-0.167212 5.68998,-0.167213 2.41554,-3.694614 c 3.88695,-5.945169 3.80284,-6.010453 3.63393,2.820756 -0.0829,4.336513 -0.29216,9.330528 -0.4649,11.097811 l -0.31409,3.213243 -1.68426,-2.48296 c -0.92634,-1.365628 -1.88372,-2.48296 -2.12751,-2.48296 -0.24379,0 -0.61055,-0.666553 -0.81502,-1.481229 -0.49216,-1.960895 -2.39852,-2.608352 -7.67999,-2.608352 h -4.34366 v 11.100291 11.100292 h 10.09396 c 8.22257,0 10.3365,-0.169881 11.40218,-0.916312 0.71952,-0.503972 1.15685,-1.161226 0.97185,-1.460565 -0.185,-0.299339 -0.10692,-0.544252 0.17351,-0.544252 0.28043,0 2.32597,-2.519962 4.54564,-5.599916 2.21967,-3.079953 4.12943,-5.318924 4.24391,-4.97549 0.24377,0.731337 -1.60554,16.480716 -2.01252,17.139216 -0.2702,0.437205 -45.77686,0.661707 -45.77686,0.225835 z"
   id="path246" /><path
   style="fill:#333333;stroke-width:0.584226;opacity:0.8"
   d="M 12.023267,86.239104 3.3065135,85.881206 5.742838,84.195129 8.1791625,82.509053 V 59.591041 36.673029 L 5.7414445,34.986952 3.3037265,33.300876 8.911177,32.839083 c 3.084098,-0.253986 7.897142,-0.253986 10.695653,0 l 5.088203,0.461793 -2.999903,1.940491 -2.999902,1.940492 v 22.743052 22.743052 l 10.077897,-0.0296 10.077897,-0.0296 4.673807,-6.236776 4.673807,-6.236775 0.186472,4.367642 c 0.102559,2.402207 0.01591,6.010781 -0.192557,8.019058 l -0.37903,3.651412 -5.357588,0.0022 c -2.946674,0.0012 -9.038212,0.09648 -13.536751,0.211817 -4.49854,0.115338 -12.101702,0.04865 -16.895915,-0.148193 z"
   id="path445" /><path
   style="opacity:0.8;fill:#333333;stroke-width:0.584226"
   d="M 7.3028236,85.643365 4.3816942,85.29698 6.2804283,84.148621 8.1791625,83.000262 V 59.591041 36.181819 L 6.3145548,35.080368 C 4.6240179,34.081744 4.5558423,33.937466 5.5842725,33.534903 7.003357,32.979423 20.960466,32.946881 22.34715,33.495819 c 0.843877,0.334059 0.61381,0.657766 -1.314508,1.849532 l -2.337414,1.444601 V 59.728958 82.667963 H 28.908194 39.12116 l 4.246625,-5.652453 4.246625,-5.652454 0.166222,6.639128 c 0.09142,3.65152 0.03395,6.983829 -0.12772,7.405131 -0.23497,0.612321 -4.019119,0.747589 -18.861451,0.674219 C 18.579331,86.031053 8.9094448,85.833877 7.3028236,85.643365 Z"
   id="path516" /><path
   style="opacity:0.8;fill:#333333;stroke-width:0.584226"
   d="m 61.343718,55.139599 c 0,-0.172165 0.657255,-1.93054 1.460565,-3.907499 0.803311,-1.97696 1.460565,-3.962417 1.460565,-4.412126 0,-0.44971 -1.183058,-2.341198 -2.629017,-4.203307 -3.043303,-3.919174 -3.319851,-5.836605 -1.15416,-8.002297 2.79547,-2.79547 5.868443,-2.334008 8.279167,1.243266 2.335645,3.465864 2.334024,5.459043 -0.0083,10.185099 -1.151453,2.323277 -3.272306,5.364765 -4.745383,6.805292 -1.464899,1.43253 -2.663453,2.463738 -2.663453,2.291572 z"
   id="path518" /><path
   style="opacity:0.8;fill:#333333;stroke-width:0.584226"
   d="m 78.870495,85.989787 c 0,-0.100943 1.183057,-1.06996 2.629017,-2.153372 l 2.629016,-1.96984 V 59.591041 37.315506 l -2.682695,-2.007315 -2.682696,-2.007315 11.300027,-0.398573 c 6.215016,-0.219215 15.949656,-0.247147 21.632526,-0.06207 l 10.33251,0.336501 0.37078,3.567427 c 0.20393,1.962085 0.28653,5.407739 0.18356,7.657009 l -0.18722,4.089581 -4.96592,-6.258521 -4.96592,-6.258521 -9.0555,0.124149 -9.055499,0.124149 -0.159881,10.454682 -0.159883,10.454681 3.604882,-0.376785 c 1.982685,-0.207232 4.628351,-0.376785 5.879271,-0.376785 2.16539,0 2.39226,-0.184998 4.73416,-3.860419 l 2.45978,-3.860419 0.16192,8.947866 c 0.0891,4.921326 0.0202,9.31714 -0.15297,9.768476 -0.46476,1.211151 -1.64893,0.04021 -3.78245,-3.740178 l -1.78664,-3.165744 h -5.558042 -5.558042 l 0.158948,10.954235 0.158947,10.954235 10.620509,0.159075 10.62051,0.159076 4.56937,-6.427792 c 3.56902,-5.020597 4.61302,-6.153255 4.7688,-5.17376 0.20618,1.296409 -0.85919,11.38545 -1.45144,13.745167 l -0.33524,1.335703 h -22.13725 c -12.175483,0 -22.137245,-0.08259 -22.137245,-0.183532 z"
   id="path520" /><path
   style="opacity:0.8;fill:#333333;stroke-width:0.584226"
   d="m 140.88829,86.201907 -4.87607,-0.320701 2.68522,-2.007316 2.68523,-2.007315 V 59.581497 37.29642 l -2.77508,-1.997772 -2.77507,-1.997772 14.89776,-0.180757 c 17.91274,-0.217338 19.81807,0.07917 23.85989,3.71311 3.69738,3.324261 4.84085,5.773506 4.83777,10.362196 -0.003,4.428746 -1.13623,7.294678 -4.1979,10.616196 -3.46663,3.760854 -6.92367,4.998148 -16.06034,5.748084 l -7.70932,0.632779 0.0731,8.903536 0.0731,8.903536 2.5373,1.837798 c 1.39552,1.010788 2.44712,1.913252 2.3369,2.005473 -0.4842,0.405139 -11.15569,0.650892 -15.59253,0.35908 z m 23.10403,-26.707283 c 2.16846,-1.026961 4.36249,-3.725587 5.33607,-6.563304 1.62638,-4.74043 0.16505,-12.351857 -2.86019,-14.897426 -1.69602,-1.427109 -5.60586,-2.864622 -7.12679,-2.620271 -0.39824,0.06398 -1.11843,-0.03585 -1.60042,-0.221853 -0.48199,-0.186002 -2.12512,-0.458074 -3.65141,-0.604605 l -2.77507,-0.266421 V 47.857462 61.39418 l 5.40408,-0.507059 c 2.97225,-0.278882 6.24543,-0.905506 7.27373,-1.392497 z"
   id="path522" /><path
   style="opacity:0.8;fill:#333333;stroke-width:0.584226"
   d="m 189.89337,22.154463 c 1.75631,-1.79265 4.42311,-4.298825 5.92623,-5.569279 l 2.73295,-2.309917 5.60674,5.360074 c 3.0837,2.94804 5.50066,5.466142 5.37102,5.595783 -0.12964,0.12964 -2.48738,-0.696373 -5.23942,-1.835584 -2.75205,-1.139212 -5.56164,-2.071295 -6.24353,-2.071295 -0.6819,0 -3.23137,0.920156 -5.6655,2.044791 -2.43412,1.124634 -4.7083,2.04479 -5.05373,2.04479 -0.34542,0 0.80893,-1.466713 2.56524,-3.259363 z"
   id="path524" /><path
   style="opacity:0.8;fill:#333333;stroke-width:0.584226"
   d="m 191.9182,86.247334 -4.08958,-0.366128 2.48296,-1.684257 2.48296,-1.684257 V 59.591041 36.669389 l -2.48296,-1.684256 -2.48296,-1.684257 5.43364,-0.168371 c 2.98851,-0.0926 7.70231,-0.0926 10.47512,0 l 5.04147,0.168371 -2.71606,2.04479 -2.71605,2.044791 -0.0181,22.240891 -0.0181,22.24089 3.06719,2.145404 3.06718,2.145404 -3.79747,0.01022 c -2.0886,0.0056 -5.11197,0.106961 -6.71859,0.225208 -1.60663,0.118246 -4.76145,0.05024 -7.01072,-0.151135 z"
   id="path526" /><path
   style="opacity:0.8;fill:#333333;stroke-width:0.584226"
   d="m 235.48541,86.214122 -4.33932,-0.332916 2.44059,-1.686077 2.44058,-1.686076 V 58.690648 34.872242 l -3.65141,0.272168 c -5.87798,0.43813 -5.85421,0.422928 -11.26777,7.205897 -2.82495,3.539543 -5.25689,6.314905 -5.40433,6.167471 -0.14743,-0.147434 -0.0751,-3.871096 0.16078,-8.274805 l 0.42884,-8.006745 25.14964,0.38172 c 13.8323,0.209946 25.20993,0.449492 25.28362,0.532324 0.0737,0.08283 0.23984,3.668452 0.36923,7.968043 l 0.23525,7.81744 -2.54469,-2.85152 c -1.39958,-1.568335 -3.86326,-4.626105 -5.47485,-6.795044 l -2.93015,-3.943525 h -4.93177 -4.93176 l 0.0391,22.908117 0.0391,22.908116 3.04078,2.771303 3.04078,2.771304 -6.42649,-0.07873 c -3.53456,-0.0433 -8.37918,-0.228546 -10.7658,-0.41165 z"
   id="path528" /><path
   style="opacity:0.8;fill:#333333;stroke-width:0.584226"
   d=""
   id="path530" /><path
   style="opacity:0.8;fill:#333333;stroke-width:0.584226"
   d="m 320.9454,87.882147 c -5.19279,-2.728872 -9.08988,-5.985728 -15.60133,-13.038258 -9.3687,-10.147213 -13.26841,-13.870733 -14.31629,-13.669472 -0.8394,0.161221 -0.97958,1.473881 -1.11888,10.477444 l -0.15926,10.293132 3.07141,1.968106 3.07141,1.968107 -5.39511,0.16798 c -2.96731,0.09239 -7.82696,0.09239 -10.79921,0 l -5.40408,-0.16798 2.77507,-1.997772 2.77507,-1.997772 V 59.591041 37.29642 l -2.77507,-1.997772 -2.77507,-1.997772 16.5539,-0.155239 c 10.41018,-0.09763 17.41427,0.07643 18.8721,0.468986 2.6634,0.717177 6.20623,3.990938 7.68003,7.096744 1.26633,2.668592 1.29088,7.58039 0.051,10.193338 -1.17647,2.47922 -4.58086,5.44731 -8.74161,7.621286 -1.73609,0.907101 -3.14667,1.912177 -3.13464,2.233501 0.0246,0.655965 4.3653,6.977808 17.34943,25.26777 1.42568,2.008277 2.33287,3.651412 2.01597,3.651412 -0.3169,0 -2.11456,-0.808437 -3.9948,-1.796527 z M 300.74277,57.26077 c 2.19738,-0.409738 5.64499,-3.222373 6.882,-5.614491 1.12606,-2.177541 1.07501,-7.526693 -0.0998,-10.462923 -1.56061,-3.900334 -4.61327,-5.204034 -15.55805,-6.644365 l -2.19085,-0.288315 v 12.113612 12.113611 l 4.52775,-0.430375 c 2.49026,-0.236705 5.3878,-0.590745 6.43898,-0.786754 z"
   id="path532" /><path
   style="opacity:0.8;fill:#333333;stroke-width:0.584226"
   d="m 334.46932,86.253444 -2.92113,-0.372238 2.77508,-1.997772 2.77507,-1.997772 V 59.518764 37.151867 l -2.59335,-1.98017 -2.59335,-1.98017 11.45069,-0.383495 c 17.24885,-0.577682 30.99752,-0.480558 31.43175,0.22204 0.53564,0.866691 1.24357,13.968837 0.79405,14.696172 -0.20648,0.334094 -2.57579,-2.152983 -5.26513,-5.526837 l -4.88971,-6.134281 -9.20155,-0.08833 -9.20156,-0.08833 -10e-4,10.390721 -10e-4,10.390719 5.79958,-0.183912 5.79957,-0.183912 2.52692,-3.880745 2.52692,-3.880745 0.16771,8.446351 c 0.0922,4.645494 0.0141,9.067336 -0.17362,9.826317 -0.33386,1.349765 -0.38494,1.330586 -2.33424,-0.876339 -1.0961,-1.240967 -2.00385,-2.570023 -2.01723,-2.953458 -0.0578,-1.656177 -2.60636,-2.516088 -7.45714,-2.516088 h -4.83592 v 11.113927 11.113929 l 10.53101,-0.05534 10.53101,-0.05534 4.80492,-6.232028 c 4.13044,-5.357223 4.8281,-6.027944 4.97009,-4.778156 0.16876,1.48552 -1.31672,13.919806 -1.70406,14.263951 -0.43881,0.389861 -38.88794,0.772683 -41.69383,0.415129 z"
   id="path534" /></svg>
